# xmcd
#
# Track frame offsets:
# 187
# 21955
# 41325
# 58805
# 78090
# 95200
# 112302
# 127280
# 148440
# 166112
# 188262
#
# Disc length: 2724 seconds
#
#
# Revision: 0
# Processed by: cddbd v1.5.1PL2 Copyright (c) Steve Scherf et al.
# Submitted via: CDLP Version 5
#
DISCID=9c0aa20b
DTITLE=小泉今日子 - フラッパー
DYEAR=1900
DGENRE=Misc
TTITLE0=フラッパー
TTITLE1=ウィンク・キラー
TTITLE2=テレフォン
TTITLE3=素直じゃなくって御免
TTITLE4=純愛
TTITLE5=マッスル・ピーチ
TTITLE6=常夏娘
TTITLE7=片想い
TTITLE8=フリー
TTITLE9=サムデイ
TTITLE10=二人
EXTD=
EXTT0=
EXTT1=
EXTT2=
EXTT3=
EXTT4=
EXTT5=
EXTT6=
EXTT7=
EXTT8=
EXTT9=
EXTT10=
PLAYORDER=
